<svg viewBox="0 0 60 60" width="36" height="36">
  <title>Logo</title>
  <g
    id="Team-Chat"
    stroke="none"
    strokeWidth="1"
    fill="none"
    fillRule="evenodd"
  >
    <rect
      id="Rectangle"
      fill="#DE2440"
      x="0"
      y="0"
      width="60"
      height="60"
      rx="10"
    />
    <path
      d="M17.8154297,40 L17.8154297,31.0058594 L21.8730469,31.0058594 C23.9726562,31.0058594 25.6108398,30.5493164 26.7875977,29.6362305 C27.9643555,28.7231445 28.5527344,27.2265625 28.5527344,25.1464844 C28.5527344,23.2128906 28.003418,21.8041992 26.9047852,20.9204102 C25.8061523,20.0366211 24.0556641,19.5947266 21.6533203,19.5947266 L21.6533203,19.5947266 L14.6074219,19.5947266 L14.6074219,40 L17.8154297,40 Z M21.2431641,28.5742188 L17.8154297,28.5742188 L17.8154297,22.0263672 L21.2431641,22.0263672 C22.6591797,22.0263672 23.6821289,22.2558594 24.3120117,22.7148438 C24.9418945,23.1738281 25.2568359,23.984375 25.2568359,25.1464844 C25.2568359,26.4648438 24.9272461,27.3657227 24.2680664,27.8491211 C23.6088867,28.3325195 22.6005859,28.5742188 21.2431641,28.5742188 L21.2431641,28.5742188 Z M35.0859375,40 L35.0859375,27.2558594 C35.3691406,27.1484375 35.8671875,27.0043945 36.5800781,26.8237305 C37.2929688,26.6430664 38.0791016,26.5527344 38.9384766,26.5527344 C40.2763672,26.5527344 41.2260742,26.8798828 41.7875977,27.5341797 C42.3491211,28.1884766 42.6298828,29.2236328 42.6298828,30.6396484 L42.6298828,30.6396484 L42.6298828,40 L45.75,40 L45.75,29.3212891 C45.75,27.6025391 45.1689453,26.3330078 44.0068359,25.5126953 C42.8447266,24.6923828 41.1845703,24.2822266 39.0263672,24.2822266 C38.2451172,24.2822266 37.4736328,24.3359375 36.7119141,24.4433594 C35.9501953,24.5507812 35.2495117,24.675293 34.6098633,24.8168945 C33.9702148,24.9584961 33.4208984,25.0976562 32.9619141,25.234375 L32.9619141,25.234375 L31.9804688,25.5419922 L31.9804688,40 L35.0859375,40 Z"
      id="Pn"
      fill="#FFFFFF"
      fillRule="nonzero"
    />
  </g>
</svg>