<svg width="4" height="17" viewBox="0 0 4 17" fill="none" xmlns="http://www.w3.org/2000/svg">
<path d="M1.875 12.5C2.89062 12.5 3.75 13.3594 3.75 14.375C3.75 15.4297 2.89062 16.25 1.875 16.25C0.820312 16.25 0 15.4297 0 14.375C0 13.3594 0.820312 12.5 1.875 12.5ZM1.875 6.25C2.89062 6.25 3.75 7.10938 3.75 8.125C3.75 9.17969 2.89062 10 1.875 10C0.820312 10 0 9.17969 0 8.125C0 7.10938 0.820312 6.25 1.875 6.25ZM1.875 3.75C0.820312 3.75 0 2.92969 0 1.875C0 0.859375 0.820312 0 1.875 0C2.89062 0 3.75 0.859375 3.75 1.875C3.75 2.92969 2.89062 3.75 1.875 3.75Z" fill="#838383"/>
</svg>
