<svg width="24" height="30" viewBox="0 0 24 30" fill="none" xmlns="http://www.w3.org/2000/svg">
<path d="M20.5 4.37501H17.3125C16.4861 2.32748 14.4201 0.833344 12 0.833344C9.52082 0.833344 7.45485 2.32748 6.62846 4.37501H3.49999C1.90624 4.37501 0.666656 5.59246 0.666656 7.03126V26.5104C0.666656 28.0046 1.90624 29.1667 3.49999 29.1667H20.5C22.0347 29.1667 23.3333 28.0046 23.3333 26.5104V7.03126C23.3333 5.59246 22.0347 4.37501 20.5 4.37501ZM12 4.37501C13.0035 4.37501 13.8889 5.20509 13.8889 6.14584C13.8889 7.14194 13.0035 7.91668 12 7.91668C10.9375 7.91668 10.1111 7.14194 10.1111 6.14584C10.1111 5.20509 10.9375 4.37501 12 4.37501ZM17.6667 19.4271C17.6667 19.9251 17.1944 20.3125 16.7222 20.3125H13.8889V22.9688C13.8889 23.4668 13.4167 23.8542 12.9444 23.8542H11.0555C10.5243 23.8542 10.1111 23.4668 10.1111 22.9688V20.3125H7.27777C6.74652 20.3125 6.33332 19.9251 6.33332 19.4271V17.6563C6.33332 17.2136 6.74652 16.7708 7.27777 16.7708H10.1111V14.1146C10.1111 13.6719 10.5243 13.2292 11.0555 13.2292H12.9444C13.4167 13.2292 13.8889 13.6719 13.8889 14.1146V16.7708H16.7222C17.1944 16.7708 17.6667 17.2136 17.6667 17.6563V19.4271Z" fill="white"/>
</svg>
