<svg width="15" height="16" viewBox="0 0 15 16" fill="none" xmlns="http://www.w3.org/2000/svg">
<path d="M8.26172 10.5781L7.26562 11.5449C7.14844 11.6914 6.97266 11.75 6.79688 11.75H5.625V12.9219C5.625 13.332 5.30273 13.625 4.92188 13.625H3.75V14.7969C3.75 15.207 3.42773 15.5 3.04688 15.5H0.703125C0.292969 15.5 0 15.207 0 14.7969V12.4531C0 12.2773 0.0585938 12.1016 0.205078 11.9551L4.92188 7.23828C4.74609 6.74023 4.6875 6.21289 4.6875 5.65625C4.6875 2.81445 6.97266 0.5 9.84375 0.5C12.6855 0.5 15 2.81445 15 5.65625C15 8.52734 12.6855 10.8125 9.84375 10.8125C9.28711 10.8125 8.75977 10.7539 8.26172 10.5781ZM11.0156 5.65625C11.6602 5.65625 12.1875 5.1582 12.1875 4.48438C12.1875 3.83984 11.6602 3.3125 11.0156 3.3125C10.3418 3.3125 9.84375 3.83984 9.84375 4.48438C9.84375 5.1582 10.3418 5.65625 11.0156 5.65625Z" fill="#CBCBCB"/>
</svg>
