<svg width="134" height="69" viewBox="0 0 134 69" fill="none" xmlns="http://www.w3.org/2000/svg">
<path d="M10.7057 39.1263H12.3747V22.551H10.7057V29.9968H1.66904V22.551H0V39.1263H1.66904V31.3722H10.7057V39.1263Z" fill="#99CDE1"/>
<path d="M21.7383 27.4121C24.1465 27.4121 26.3401 28.9298 26.2685 31.9413H17.1127C17.3034 28.9298 19.3778 27.4121 21.7383 27.4121ZM27.7707 35.024H26.0063C25.5294 36.755 24.0273 37.917 21.8098 37.917C19.3778 37.917 17.2557 36.3282 17.1127 33.2929H27.9137C27.9614 32.8424 27.9614 32.5104 27.9614 31.9887C27.9614 28.6926 25.6248 25.9893 21.8098 25.9893C18.0664 25.9893 15.4198 28.5266 15.4198 32.6527C15.4198 36.755 18.1141 39.316 21.8098 39.316C25.0764 39.316 27.1746 37.4664 27.7707 35.024Z" fill="#99CDE1"/>
<path d="M30.2521 32.629C30.2521 36.6839 32.8987 39.316 36.4514 39.316C39.0503 39.316 40.8624 37.917 41.6254 36.2571V39.1263H43.2944V26.179H41.6254V29.0246C40.8862 27.3884 39.098 25.9893 36.4752 25.9893C32.8987 25.9893 30.2521 28.5741 30.2521 32.629ZM41.6254 32.6527C41.6254 35.8777 39.4556 37.8695 36.7852 37.8695C34.0432 37.8695 31.945 35.9014 31.945 32.629C31.945 29.3329 34.0432 27.4358 36.7852 27.4358C39.4556 27.4358 41.6254 29.4277 41.6254 32.6527Z" fill="#99CDE1"/>
<path d="M47.1047 39.1263H48.7738V21.5787H47.1047V39.1263Z" fill="#99CDE1"/>
<path d="M53.0302 35.6168C53.0302 38.2015 54.2462 39.1263 56.5113 39.1263H58.2996V37.7035H56.7736C55.2715 37.7035 54.7231 37.2056 54.7231 35.6168V27.5781H58.2996V26.179H54.7231V22.9304H53.0302V26.179H51.2181V27.5781H53.0302V35.6168Z" fill="#99CDE1"/>
<path d="M61.0522 39.1263H62.7212V32.0599C62.7212 28.906 64.4141 27.3884 66.8461 27.3884C69.2305 27.3884 70.8041 28.8586 70.8041 31.7279V39.1263H72.4493V31.5382C72.4493 27.7441 70.1365 25.9419 67.2515 25.9419C65.2725 25.9419 63.5557 26.7956 62.7212 28.3844V21.5787H61.0522V39.1263Z" fill="#99CDE1"/>
<path d="M38.3163 45.2633V68.7676H30.9058V59.6049H23.8624V68.7676H16.4519V45.2633H23.8624V53.7288H30.9058V45.2633H38.3163Z" fill="#99CDE1"/>
<path d="M61.5788 50.0438V68.7676H54.1683V65.9125C53.5897 66.7978 52.8108 67.5171 51.8316 68.0704C50.8747 68.6237 49.7286 68.9003 48.3934 68.9003C46.2348 68.9003 44.5435 68.1811 43.3195 66.7425C42.1178 65.3039 41.517 63.3563 41.517 60.8996V50.0438H48.8941V59.97C48.8941 60.8553 49.1278 61.5636 49.5951 62.0947C50.0847 62.6038 50.73 62.8583 51.5312 62.8583C52.3546 62.8583 52.9999 62.6038 53.4673 62.0947C53.9346 61.5636 54.1683 60.8553 54.1683 59.97V50.0438H61.5788Z" fill="#99CDE1"/>
<path d="M72.3363 52.6001C72.8036 51.7369 73.4712 51.0619 74.3391 50.575C75.2293 50.0659 76.2863 49.8114 77.5103 49.8114C78.9791 49.8114 80.3032 50.1987 81.4826 50.9733C82.6621 51.7258 83.5856 52.8324 84.2532 54.2932C84.9431 55.7317 85.288 57.4359 85.288 59.4057C85.288 61.3754 84.9431 63.0907 84.2532 64.5514C83.5856 65.99 82.6621 67.0966 81.4826 67.8712C80.3032 68.6237 78.9791 68.9999 77.5103 68.9999C76.2863 68.9999 75.2293 68.7565 74.3391 68.2696C73.4712 67.7605 72.8036 67.0744 72.3363 66.2113V68.7676H64.9257V44.2009H72.3363V52.6001ZM77.7773 59.4057C77.7773 58.4097 77.5214 57.6351 77.0096 57.0818C76.4977 56.5285 75.8413 56.2519 75.0401 56.2519C74.239 56.2519 73.5825 56.5285 73.0707 57.0818C72.5588 57.6351 72.3029 58.4097 72.3029 59.4057C72.3029 60.4016 72.5588 61.1762 73.0707 61.7295C73.5825 62.2828 74.239 62.5595 75.0401 62.5595C75.8413 62.5595 76.4977 62.2828 77.0096 61.7295C77.5214 61.1762 77.7773 60.4016 77.7773 59.4057Z" fill="#99CDE1"/>
<path d="M107.791 0C93.2538 0 81.5828 9.35286 81.5828 20.9182C81.5828 25.8461 83.8351 30.3716 87.4183 33.9921C86.1898 39.1211 81.89 43.6467 81.89 43.6467C81.5828 43.9484 81.4804 44.3506 81.5828 44.6523C81.7876 44.9541 81.9923 45.0546 82.4018 45.0546C89.1587 45.0546 94.2776 41.937 96.7346 39.9256C100.113 41.1325 103.799 41.8364 107.791 41.8364C122.227 41.8364 134 32.4836 134 20.9182C134 9.25229 122.227 0 107.791 0ZM119.258 23.533C119.258 24.4381 118.439 25.1421 117.62 25.1421H112.091V30.5728C112.091 31.4779 111.272 32.1819 110.453 32.1819H105.13C104.208 32.1819 103.492 31.4779 103.492 30.5728V25.1421H97.9632C97.0418 25.1421 96.3251 24.4381 96.3251 23.533V18.3034C96.3251 17.4989 97.0418 16.6943 97.9632 16.6943H103.389V11.2637C103.389 10.4591 104.106 9.65456 105.027 9.65456H110.351C111.17 9.65456 111.989 10.4591 111.989 11.2637V16.6943H117.62C118.439 16.6943 119.258 17.4989 119.258 18.3034V23.533Z" fill="#99CDE1"/>
</svg>
