<svg width="12" height="12" viewBox="0 0 12 12" fill="none" xmlns="http://www.w3.org/2000/svg">
<path d="M7.91015 7.46479C6.64453 7.69916 5.47265 6.71479 5.47265 5.42572C5.47265 4.69916 5.87109 4.01947 6.5039 3.64447C6.62109 3.5976 6.59765 3.43354 6.48047 3.4101C6.3164 3.38666 6.15234 3.38666 5.98828 3.38666C4.55859 3.36322 3.38672 4.5351 3.38672 5.98822C3.38672 7.44135 4.55859 8.61322 5.98828 8.61322C6.80859 8.61322 7.53515 8.26166 8.02734 7.65229C8.09765 7.55854 8.02734 7.44135 7.91015 7.46479ZM11.8945 7.93354L10.5586 5.98822L11.8945 4.04291C12.1289 3.73822 11.9414 3.26947 11.543 3.19916L9.22265 2.77729L8.80078 0.456975C8.73047 0.0585372 8.26171 -0.128963 7.95703 0.105412L6.01172 1.44135L4.04297 0.105412C3.73828 -0.128963 3.26953 0.0585372 3.19922 0.456975L2.77734 2.77729L0.457028 3.19916C0.0585906 3.26947 -0.128909 3.71479 0.105466 4.04291L1.4414 5.98822L0.105466 7.95697C-0.128909 8.26166 0.0585906 8.73041 0.457028 8.80072L2.77734 9.2226L3.19922 11.5429C3.26953 11.9413 3.73828 12.1288 4.04297 11.8945L6.01172 10.5585L7.95703 11.8945C8.26171 12.1288 8.73047 11.9413 8.80078 11.5429L9.22265 9.2226L11.543 8.80072C11.9414 8.73041 12.1289 8.26166 11.8945 7.93354ZM8.3789 8.37885C7.0664 9.69135 4.93359 9.69135 3.62109 8.37885C2.28515 7.04291 2.28515 4.9101 3.62109 3.5976C4.93359 2.2851 7.0664 2.2851 8.3789 3.5976C9.6914 4.93354 9.6914 7.06635 8.3789 8.37885Z" fill="currentColor"/>
</svg>
