<svg width="12" height="12" viewBox="0 0 12 12" fill="none" xmlns="http://www.w3.org/2000/svg">
<path d="M7.78125 10.0078C5.60156 10.4297 3.58594 8.74219 3.58594 6.53906C3.58594 5.27344 4.26562 4.10156 5.36719 3.46875C5.55469 3.375 5.50781 3.11719 5.32031 3.09375C2.53125 2.57812 0 4.6875 0 7.5C0 9.98438 1.99219 12 4.47656 12C5.88281 12 7.14844 11.3906 7.96875 10.3359C8.10938 10.1953 7.96875 9.96094 7.78125 10.0078ZM6.75 1.5L7.03125 2.17969C7.05469 2.22656 7.07812 2.25 7.10156 2.25C7.14844 2.25 7.17188 2.22656 7.19531 2.17969L7.47656 1.5L8.17969 1.19531C8.22656 1.19531 8.25 1.17188 8.25 1.125C8.25 1.07812 8.22656 1.05469 8.17969 1.03125L7.47656 0.75L7.19531 0.046875C7.17188 0.0234375 7.14844 0 7.125 0C7.07812 0 7.05469 0.0234375 7.03125 0.046875L6.75 0.75L6.04688 1.05469C6 1.07812 5.97656 1.10156 5.97656 1.125C5.97656 1.17188 6 1.19531 6.04688 1.21875L6.75 1.5ZM11.8828 5.08594L10.5 4.5L9.91406 3.11719C9.86719 3.04688 9.82031 3 9.75 3C9.67969 3 9.60938 3.02344 9.5625 3.09375L9 4.5L7.59375 5.08594C7.52344 5.13281 7.5 5.17969 7.5 5.25C7.5 5.32031 7.52344 5.39062 7.59375 5.4375L9 6L9.5625 7.40625C9.60938 7.47656 9.67969 7.5 9.75 7.5C9.82031 7.5 9.86719 7.47656 9.91406 7.40625L10.5 6L11.8828 5.4375C11.9531 5.39062 12 5.32031 12 5.25C12 5.17969 11.9531 5.13281 11.8828 5.08594Z" fill="currentColor"/>
</svg>
