<svg width="18" height="16" viewBox="0 0 18 16" fill="none" xmlns="http://www.w3.org/2000/svg">
<path d="M17.6186 7.14303C17.3809 7.37755 17.064 7.49481 16.7075 7.49481C16.351 7.49481 16.0341 7.37755 15.7964 7.14303L12.9443 4.28973V12.8731C12.9443 14.632 11.5183 16 9.77534 16H1.2676C0.554573 16 0 15.4528 0 14.7492C0 14.0848 0.554573 13.4985 1.2676 13.4985H9.77534C10.0922 13.4985 10.4091 13.2249 10.4091 12.8731V4.28973L7.47783 7.14303C7.00248 7.65115 6.17062 7.65115 5.69527 7.14303C5.18031 6.674 5.18031 5.85318 5.69527 5.38415L10.726 0.381092C11.2014 -0.127031 12.0332 -0.127031 12.5086 0.381092L17.579 5.38415C18.1336 5.85318 18.1336 6.674 17.6186 7.14303Z" fill="currentColor"/>
</svg>
