<svg width="6" height="20" viewBox="0 0 6 20" fill="none" xmlns="http://www.w3.org/2000/svg">
<path d="M3 15.25C4.21875 15.25 5.25 16.2812 5.25 17.5C5.25 18.7656 4.21875 19.75 3 19.75C1.73438 19.75 0.75 18.7656 0.75 17.5C0.75 16.2812 1.73438 15.25 3 15.25ZM3 7.75C4.21875 7.75 5.25 8.78125 5.25 10C5.25 11.2656 4.21875 12.25 3 12.25C1.73438 12.25 0.75 11.2656 0.75 10C0.75 8.78125 1.73438 7.75 3 7.75ZM3 4.75C1.73438 4.75 0.75 3.76562 0.75 2.5C0.75 1.28125 1.73438 0.25 3 0.25C4.21875 0.25 5.25 1.28125 5.25 2.5C5.25 3.76562 4.21875 4.75 3 4.75Z" fill="currentColor"/>
</svg>
