<svg width="12" height="12" viewBox="0 0 12 12" fill="none" xmlns="http://www.w3.org/2000/svg">
<path d="M7.91016 7.46485C6.64454 7.69922 5.47266 6.71485 5.47266 5.42579C5.47266 4.69922 5.8711 4.01954 6.50391 3.64454C6.6211 3.59766 6.59766 3.4336 6.48047 3.41016C6.31641 3.38672 6.15235 3.38672 5.98829 3.38672C4.5586 3.36329 3.38672 4.53516 3.38672 5.98829C3.38672 7.44141 4.5586 8.61329 5.98829 8.61329C6.8086 8.61329 7.53516 8.26172 8.02735 7.65235C8.09766 7.5586 8.02735 7.44141 7.91016 7.46485ZM11.8945 7.9336L10.5586 5.98829L11.8945 4.04297C12.1289 3.73829 11.9414 3.26954 11.543 3.19922L9.22266 2.77735L8.80079 0.457036C8.73047 0.0585983 8.26172 -0.128902 7.95704 0.105473L6.01172 1.44141L4.04297 0.105473C3.73829 -0.128902 3.26954 0.0585983 3.19922 0.457036L2.77735 2.77735L0.457036 3.19922C0.0585983 3.26954 -0.128902 3.71485 0.105473 4.04297L1.44141 5.98829L0.105473 7.95704C-0.128902 8.26172 0.0585983 8.73047 0.457036 8.80079L2.77735 9.22266L3.19922 11.543C3.26954 11.9414 3.73829 12.1289 4.04297 11.8945L6.01172 10.5586L7.95704 11.8945C8.26172 12.1289 8.73047 11.9414 8.80079 11.543L9.22266 9.22266L11.543 8.80079C11.9414 8.73047 12.1289 8.26172 11.8945 7.9336ZM8.37891 8.37891C7.06641 9.69141 4.9336 9.69141 3.6211 8.37891C2.28516 7.04297 2.28516 4.91016 3.6211 3.59766C4.9336 2.28516 7.06641 2.28516 8.37891 3.59766C9.69141 4.9336 9.69141 7.06641 8.37891 8.37891Z" fill="currentColor"/>
</svg>
