<svg width="20" height="15" viewBox="0 0 20 15" fill="none" xmlns="http://www.w3.org/2000/svg">
<path d="M1.5 3C2.32843 3 3 2.32843 3 1.5C3 0.671573 2.32843 0 1.5 0C0.671573 0 0 0.671573 0 1.5C0 2.32843 0.671573 3 1.5 3Z" fill="currentColor"/>
<path d="M5 0C4.44772 0 4 0.447715 4 1V2C4 2.55228 4.44771 3 5 3H14C14.5523 3 15 2.55228 15 2V1C15 0.447715 14.5523 0 14 0H5Z" fill="currentColor"/>
<path d="M3 13.5C3 14.3284 2.32843 15 1.5 15C0.671573 15 0 14.3284 0 13.5C0 12.6716 0.671573 12 1.5 12C2.32843 12 3 12.6716 3 13.5Z" fill="currentColor"/>
<path d="M5 12C4.44772 12 4 12.4477 4 13V14C4 14.5523 4.44771 15 5 15H14C14.5523 15 15 14.5523 15 14V13C15 12.4477 14.5523 12 14 12H5Z" fill="currentColor"/>
<path d="M3 5.5C3 6.32843 2.32843 7 1.5 7C0.671573 7 0 6.32843 0 5.5C0 4.67157 0.671573 4 1.5 4C2.32843 4 3 4.67157 3 5.5Z" fill="currentColor"/>
<path d="M1.5 11C2.32843 11 3 10.3284 3 9.5C3 8.67157 2.32843 8 1.5 8C0.671573 8 0 8.67157 0 9.5C0 10.3284 0.671573 11 1.5 11Z" fill="currentColor"/>
<path d="M4 5C4 4.44772 4.44772 4 5 4H11C11.5523 4 12 4.44772 12 5V6C12 6.55228 11.5523 7 11 7H5C4.44772 7 4 6.55228 4 6V5Z" fill="currentColor"/>
<path d="M5 8C4.44772 8 4 8.44771 4 9V10C4 10.5523 4.44772 11 5 11H19C19.5523 11 20 10.5523 20 10V9C20 8.44772 19.5523 8 19 8H5Z" fill="currentColor"/>
</svg>
