<svg width="12" height="11" viewBox="0 0 12 11" fill="none" xmlns="http://www.w3.org/2000/svg">
<path d="M4.59607 8.10352L2.26709 5.77454C2.11609 5.62354 2.11609 5.37756 2.26709 5.22656L4.59607 2.89758C4.74707 2.74658 4.99304 2.74658 5.14404 2.89758L5.65601 3.40955C5.80701 3.56055 5.80701 3.80652 5.65601 3.95752L4.11304 5.50061L5.65601 7.04358C5.80701 7.19458 5.80701 7.44055 5.65601 7.59155L5.14404 8.10352C4.99304 8.25452 4.74707 8.25452 4.59607 8.10352Z" fill="currentColor"/>
<path fill-rule="evenodd" clip-rule="evenodd" d="M1.59802 0.249512H10.402C11.285 0.249512 12 0.965454 12 1.84753V9.15247C12 10.0355 11.2841 10.7505 10.402 10.7505H1.59802C0.714966 10.7505 0 10.0345 0 9.15247V1.84753C0 0.964478 0.714966 0.249512 1.59802 0.249512ZM1.5 9.41455H6.75V1.58447H1.5V9.41455Z" fill="currentColor"/>
</svg>
