<svg width="16" height="12" viewBox="0 0 16 12" fill="none" xmlns="http://www.w3.org/2000/svg">
<path d="M10.257 4.125C10.257 1.85156 8.05387 0 5.382 0C2.68669 0 0.506998 1.85156 0.506998 4.125C0.506998 5.0625 0.858561 5.90625 1.46794 6.60938C1.09294 7.38281 0.553873 7.94531 0.553873 7.96875C0.483561 8.01562 0.483561 8.08594 0.506998 8.15625C0.530436 8.22656 0.600748 8.25 0.671061 8.25C1.58512 8.25 2.33512 7.99219 2.92106 7.6875C3.64762 8.0625 4.46794 8.25 5.382 8.25C8.05387 8.25 10.257 6.42188 10.257 4.125ZM5.382 6.75C5.05387 6.75 4.8195 6.51562 4.8195 6.1875C4.8195 5.85938 5.05387 5.625 5.382 5.625C5.71012 5.625 5.9445 5.85938 5.9445 6.1875C5.9445 6.51562 5.71012 6.75 5.382 6.75ZM6.62419 4.03125L5.80387 4.52344V4.57031C5.80387 4.80469 5.61637 4.99219 5.382 4.99219C5.14762 4.99219 4.96012 4.80469 4.96012 4.57031V4.28906C4.96012 4.125 5.03044 3.98438 5.17106 3.91406L6.17887 3.30469C6.3195 3.21094 6.38981 3.09375 6.38981 2.95312C6.38981 2.74219 6.20231 2.55469 5.99137 2.55469H5.05387C4.84294 2.55469 4.65544 2.74219 4.65544 2.95312C4.65544 3.1875 4.46794 3.375 4.23356 3.375C3.99919 3.375 3.81169 3.1875 3.81169 2.95312C3.81169 2.25 4.35075 1.6875 5.05387 1.6875H5.99137C6.6945 1.6875 7.257 2.25 7.257 2.95312C7.257 3.375 7.02262 3.79688 6.62419 4.03125ZM14.5461 10.4062C15.132 9.70312 15.507 8.83594 15.507 7.875C15.507 5.60156 13.4914 3.75 11.007 3.75C10.9836 3.75 10.9836 3.77344 10.9836 3.77344C10.9836 3.89062 11.007 4.00781 11.007 4.125C11.007 6.44531 9.132 8.39062 6.62419 8.88281C7.11637 10.6875 8.87419 12 11.007 12C11.7804 12 12.5304 11.8125 13.1632 11.5078C13.7492 11.7656 14.4757 12 15.3195 12C15.3898 12 15.4601 11.9766 15.4836 11.9062C15.507 11.8359 15.4836 11.7656 15.4367 11.7188C15.4367 11.6953 14.9211 11.1562 14.5461 10.4062ZM13.2101 7.45312L11.2414 9.51562C11.1476 9.60938 11.0304 9.65625 10.9132 9.65625C10.7726 9.65625 10.6554 9.60938 10.5617 9.53906L9.62419 8.60156C9.46012 8.41406 9.46012 8.10938 9.62419 7.92188C9.81169 7.75781 10.1164 7.75781 10.3039 7.92188L10.8898 8.53125L12.5304 6.82031C12.7179 6.63281 12.9992 6.60938 13.1867 6.79688C13.3742 6.98438 13.3976 7.26562 13.2101 7.45312Z" fill="currentColor"/>
</svg>
